<svg width="67" height="67" viewBox="0 0 67 67" fill="none" xmlns="http://www.w3.org/2000/svg">
<path fill-rule="evenodd" clip-rule="evenodd" d="M0 0H4.1875V62.8125H67V67H0V0ZM41.875 14.6562C41.875 14.101 42.0956 13.5684 42.4882 13.1757C42.8809 12.7831 43.4135 12.5625 43.9688 12.5625H60.7188C61.274 12.5625 61.8066 12.7831 62.1993 13.1757C62.5919 13.5684 62.8125 14.101 62.8125 14.6562V31.4062C62.8125 31.9615 62.5919 32.4941 62.1993 32.8868C61.8066 33.2794 61.274 33.5 60.7188 33.5C60.1635 33.5 59.6309 33.2794 59.2382 32.8868C58.8456 32.4941 58.625 31.9615 58.625 31.4062V20.5188L43.4956 39.0149C43.3104 39.241 43.0799 39.4258 42.8189 39.5574C42.558 39.689 42.2724 39.7646 41.9805 39.7792C41.6886 39.7938 41.3969 39.7471 41.1242 39.6421C40.8514 39.5372 40.6037 39.3763 40.3968 39.1699L29.5637 28.3368L14.2543 49.3874C13.9193 49.8132 13.4324 50.0927 12.8958 50.167C12.3591 50.2414 11.8145 50.1048 11.3765 49.786C10.9384 49.4672 10.641 48.9911 10.5467 48.4576C10.4524 47.9241 10.5685 47.3748 10.8707 46.9251L27.6208 23.8939C27.7985 23.649 28.0273 23.4455 28.2913 23.2975C28.5553 23.1495 28.8482 23.0605 29.1499 23.0367C29.4516 23.0128 29.7549 23.0546 30.0389 23.1592C30.3228 23.2638 30.5808 23.4287 30.7949 23.6426L41.7201 34.572L56.3009 16.75H43.9688C43.4135 16.75 42.8809 16.5294 42.4882 16.1368C42.0956 15.7441 41.875 15.2115 41.875 14.6562Z" fill="white"/>
</svg>
