<svg width="76" height="77" viewBox="0 0 76 77" fill="none" xmlns="http://www.w3.org/2000/svg">
<path d="M4.04778 72.5541L28.8722 47.7297M60.1328 36.6906L52.7019 58.9834C52.5833 59.3407 52.3803 59.6642 52.11 59.9263C51.8397 60.1884 51.5102 60.3815 51.1494 60.4891L5.59638 74.0286C5.18599 74.1505 4.75002 74.1574 4.33593 74.0488C3.92184 73.9401 3.5455 73.7199 3.24784 73.4122C2.95019 73.1045 2.74264 72.721 2.64778 72.3036C2.55292 71.8861 2.57438 71.4506 2.70983 71.0445L17.5015 26.6773C17.6075 26.3588 17.7808 26.0667 18.0096 25.8211C18.2385 25.5754 18.5175 25.3819 18.8277 25.2535L39.8411 16.6017C40.2683 16.4252 40.7382 16.3792 41.1915 16.4695C41.6448 16.5597 42.0612 16.7822 42.3883 17.1088L59.5672 34.2916C59.8753 34.5993 60.0915 34.9868 60.1914 35.4106C60.2913 35.8344 60.271 36.2777 60.1328 36.6906Z" stroke="white" stroke-width="3.88707" stroke-linecap="round" stroke-linejoin="round"/>
<path d="M60.5925 35.3177L71.6239 24.2825C73.0864 22.8195 73.908 20.8355 73.908 18.7668C73.908 16.6981 73.0864 14.7141 71.6239 13.2511L63.3543 4.97375C62.6298 4.24898 61.7696 3.67404 60.8229 3.28178C59.8762 2.88952 58.8614 2.68762 57.8367 2.68762C56.8119 2.68762 55.7972 2.88952 54.8504 3.28178C53.9037 3.67404 53.0435 4.24898 52.319 4.97375L41.2877 16.009M37.1451 39.4525C36.6016 38.9093 35.9564 38.4784 35.2464 38.1845C34.5364 37.8906 33.7754 37.7394 33.007 37.7396C32.2385 37.7398 31.4777 37.8913 30.7678 38.1855C30.0579 38.4798 29.4129 38.911 28.8697 39.4545C28.3264 39.998 27.8955 40.6431 27.6016 41.3532C27.3077 42.0632 27.1566 42.8242 27.1567 43.5926C27.1569 44.361 27.3085 45.1219 27.6027 45.8318C27.8969 46.5417 28.3281 47.1867 28.8716 47.7299C29.9693 48.8271 31.4578 49.4432 33.0097 49.4428C34.5617 49.4425 36.0499 48.8256 37.1471 47.728C38.2442 46.6303 38.8604 45.1418 38.86 43.5898C38.8596 42.0379 38.2428 40.5497 37.1451 39.4525Z" stroke="white" stroke-width="3.88707" stroke-linecap="round" stroke-linejoin="round"/>
</svg>
